<svg width="56" height="56" viewBox="0 0 56 56" fill="none" xmlns="http://www.w3.org/2000/svg"><path opacity="0.33" d="M28.0099 2.9948e-07C16.8064 -0.00163303 6.68092 6.67788 2.27126 16.9792L1.92226 17.0949L2.05757 17.5009C-3.74842 31.8236 3.15319 48.1421 17.4729 53.9493C20.8174 55.3057 24.3926 56.002 28.0016 56C43.4623 56.0023 55.9977 43.4681 56 28.0042C56.0023 12.5403 43.4707 0.00221697 28.0099 2.9948e-07ZM49.9682 42.1171L48.5307 40.6803V37.3333C48.5323 37.1889 48.5004 37.0461 48.4374 36.9161L44.7981 29.6464V26.1333C44.7981 25.8214 44.6424 25.5299 44.3829 25.3568L41.5835 23.4901C41.3641 23.3436 41.0929 23.2968 40.837 23.3613L37.4086 24.2181L31.6502 21.7467L30.858 16.1952L33.0536 14H37.7669L39.3533 16.3847C39.4965 16.5991 39.7222 16.7448 39.9766 16.7869L45.5754 17.7203C45.7254 17.7455 45.8792 17.7332 46.0233 17.6848L51.1799 15.9656C55.5048 24.267 55.0422 34.2515 49.9682 42.1171ZM46.1195 9.19707L44.6022 10.2088L40.3722 9.36227L37.6279 8.44853C37.4599 8.39148 37.2791 8.38425 37.1072 8.428L33.6378 9.29507L32.1168 8.78827L33.244 6.53333H36.3999C36.5446 6.53345 36.6874 6.49997 36.817 6.43533L40.0457 4.82067C42.2691 5.9815 44.3145 7.45523 46.1195 9.19707ZM17.781 3.9508L20.0205 5.44413C20.1306 5.5174 20.2549 5.5664 20.3854 5.58787L24.9073 6.342L24.466 7.66267L22.1098 8.44947C21.8988 8.5197 21.7197 8.66297 21.605 8.8536L18.925 13.3205L14.6204 15.904L8.27507 16.8103C7.81515 16.8752 7.47316 17.2688 7.47257 17.7333V20.5333C7.47257 20.7809 7.57102 21.0182 7.74598 21.1932L9.33885 22.7864V24.3899L5.45699 21.8008L4.04889 17.5756C6.72793 11.4529 11.6382 6.58093 17.781 3.9508ZM15.1243 34.552L10.9065 33.7073L9.33885 30.5797V28.3864L12.8157 24.9088L14.1025 27.4839C14.2606 27.8003 14.584 28.0001 14.9377 28H20.9415L23.4694 32.214C23.638 32.4948 23.9415 32.6665 24.2691 32.6667H26.8632L26.21 35.9399L22.6771 39.4735C22.5018 39.6483 22.4031 39.8856 22.4028 40.1333V42.4667L19.0435 44.9867C18.8086 45.1629 18.6702 45.4396 18.6702 45.7333V49.1045L17.5094 48.72L15.8708 44.6208V35.4667C15.8709 35.0231 15.5588 34.6407 15.1243 34.552ZM12.3193 48.8998C3.52108 42.2977 -0.199693 30.8905 3.0131 20.3691L3.78854 22.6949C3.85386 22.8917 3.98287 23.0613 4.15527 23.1765L8.80696 26.278L7.74598 27.3401C7.57102 27.5151 7.47257 27.7524 7.47257 28V30.8C7.47246 30.9448 7.50593 31.0876 7.57055 31.2172L9.43683 34.9505C9.56607 35.2084 9.80717 35.392 10.09 35.448L14.0092 36.2311V44.8C14.0091 44.9185 14.0316 45.0361 14.0755 45.1463L15.9417 49.8129C16.0439 50.0678 16.2532 50.2649 16.5138 50.3515L19.3132 51.2848C19.4067 51.3165 19.5047 51.3329 19.6034 51.3333C20.1187 51.3333 20.5365 50.9154 20.5365 50.4V46.2L23.8958 43.68C24.1307 43.5037 24.2691 43.2271 24.2691 42.9333V40.5197L27.7282 37.0599C27.8583 36.9296 27.9469 36.7635 27.983 36.5829L28.9161 31.9163C29.0171 31.4108 28.6894 30.9191 28.1839 30.8181C28.1239 30.8061 28.0629 30.8 28.0016 30.8H24.7972L22.2694 26.586C22.1007 26.3052 21.7972 26.1334 21.4697 26.1333H15.5144L13.9112 22.9161C13.777 22.6476 13.5218 22.46 13.2254 22.4121C12.9291 22.3609 12.6267 22.4587 12.4163 22.6735L11.2051 23.8803V22.4C11.2051 22.1524 11.1067 21.9151 10.9317 21.7401L9.33885 20.1469V18.5425L15.0702 17.724C15.1932 17.7061 15.3116 17.6639 15.4183 17.5999L20.0839 14.7999C20.2148 14.7212 20.3245 14.6116 20.4031 14.4807L23.0252 10.1099L25.4971 9.2848C25.7762 9.19322 25.9953 8.97423 26.0868 8.69493L27.02 5.89493C27.1816 5.40552 26.916 4.8776 26.4267 4.7159C26.3816 4.70097 26.3353 4.68953 26.2884 4.6816L20.8874 3.78093L19.9384 3.14813C25.8105 1.23643 32.1705 1.47303 37.8845 3.81547L36.1797 4.66667H32.6673C32.3119 4.66468 31.9864 4.86488 31.8275 5.1828L29.9612 8.91613C29.7313 9.37743 29.9188 9.9379 30.38 10.1679C30.4193 10.1875 30.4599 10.2043 30.5015 10.2181L33.3009 11.1515C33.4689 11.2085 33.6497 11.2157 33.8216 11.172L37.291 10.3049L39.8329 11.1515C39.8693 11.1645 39.9067 11.1746 39.9449 11.1813L44.6106 12.1147C44.8532 12.1641 45.1056 12.1144 45.3114 11.9765L47.4352 10.5597C48.4804 11.7242 49.4197 12.9795 50.2421 14.3108L45.651 15.8415L40.6802 15.0127L39.0379 12.5487C38.8657 12.2905 38.5764 12.1349 38.2662 12.1333H32.6673C32.4198 12.1333 32.1826 12.2318 32.0076 12.4068L29.2082 15.2068C29.0003 15.4146 28.9025 15.7082 28.9441 15.9992L29.8772 22.5325C29.9242 22.8556 30.1365 23.1306 30.4371 23.2577L36.9691 26.0577C37.1562 26.1388 37.365 26.1555 37.5626 26.1053L40.8948 25.2719L42.9319 26.6327V29.8667C42.9302 30.0111 42.9622 30.1539 43.0252 30.2839L46.6644 37.5536V41.0667C46.6644 41.3142 46.7629 41.5515 46.9378 41.7265L48.8899 43.68C40.2324 55.2222 23.8591 57.5592 12.3193 48.8998Z" fill="#461A42"></path></svg>